<svg width="1414" height="380" viewBox="0 0 1414 380" fill="none" xmlns="http://www.w3.org/2000/svg">
<path d="M1049.67 284.801C1061.75 308.96 1079.22 315 1086.44 315C1096.94 312.155 1115.77 290.053 1136.34 269.701C1156.91 249.35 1161.51 247.38 1194.12 236.657C1220.21 228.079 1238.98 201.571 1245.11 189.389C1251.82 178.229 1264.24 147.198 1260.21 112.36C1256.19 77.5213 1227.02 74.0637 1212.94 76.6897C1251.46 82.1168 1247.81 111.63 1241.17 125.709C1238.69 134.681 1229.57 156.695 1212.94 172.977C1196.31 189.258 1146.77 200.769 1124.08 204.489C1077.86 218.494 1055.22 231.77 1049.67 236.657C1044.64 242.639 1037.59 260.642 1049.67 284.801Z" fill="black"/>
<path d="M366.299 284.801C354.162 308.96 336.617 315 329.362 315C318.808 312.155 299.9 290.053 279.233 269.701C258.566 249.35 253.948 247.38 221.189 236.657C194.981 228.079 176.117 201.571 169.961 189.389C163.218 178.229 150.745 147.198 154.79 112.36C158.835 77.5213 188.136 74.0637 202.281 76.6897C163.585 82.1168 167.249 111.63 173.918 125.709C176.41 134.681 185.571 156.695 202.281 172.977C218.99 189.258 268.753 200.769 291.545 204.489C337.98 218.494 360.729 231.77 366.299 236.657C371.356 242.639 378.435 260.642 366.299 284.801Z" fill="black"/>
<path d="M263.832 176.488C254.987 176.488 246.968 174.587 239.776 170.784C232.667 166.899 227.045 161.567 222.912 154.788C218.861 147.927 216.836 140.197 216.836 131.6C216.836 123.003 218.861 115.315 222.912 108.536C227.045 101.675 232.667 96.3427 239.776 92.54C246.968 88.6547 255.028 86.712 263.956 86.712C271.479 86.712 278.257 88.0347 284.292 90.68C290.409 93.3253 295.535 97.128 299.668 102.088L286.772 113.992C280.903 107.213 273.628 103.824 264.948 103.824C259.575 103.824 254.78 105.023 250.564 107.42C246.348 109.735 243.041 113 240.644 117.216C238.329 121.432 237.172 126.227 237.172 131.6C237.172 136.973 238.329 141.768 240.644 145.984C243.041 150.2 246.348 153.507 250.564 155.904C254.78 158.219 259.575 159.376 264.948 159.376C273.628 159.376 280.903 155.945 286.772 149.084L299.668 160.988C295.535 166.031 290.409 169.875 284.292 172.52C278.175 175.165 271.355 176.488 263.832 176.488ZM341.313 175.992C334.286 175.992 327.962 174.545 322.341 171.652C316.802 168.676 312.462 164.584 309.321 159.376C306.179 154.168 304.609 148.257 304.609 141.644C304.609 135.031 306.179 129.12 309.321 123.912C312.462 118.704 316.802 114.653 322.341 111.76C327.962 108.784 334.286 107.296 341.313 107.296C348.339 107.296 354.622 108.784 360.161 111.76C365.699 114.653 370.039 118.704 373.181 123.912C376.322 129.12 377.893 135.031 377.893 141.644C377.893 148.257 376.322 154.168 373.181 159.376C370.039 164.584 365.699 168.676 360.161 171.652C354.622 174.545 348.339 175.992 341.313 175.992ZM341.313 160.12C346.273 160.12 350.323 158.467 353.465 155.16C356.689 151.771 358.301 147.265 358.301 141.644C358.301 136.023 356.689 131.559 353.465 128.252C350.323 124.863 346.273 123.168 341.313 123.168C336.353 123.168 332.261 124.863 329.037 128.252C325.813 131.559 324.201 136.023 324.201 141.644C324.201 147.265 325.813 151.771 329.037 155.16C332.261 158.467 336.353 160.12 341.313 160.12ZM496.142 108.288L471.962 175H453.362L438.358 133.584L422.858 175H404.258L380.202 108.288H398.43L414.178 153.424L430.546 108.288H446.914L462.786 153.424L479.03 108.288H496.142ZM526.61 175.992C521.072 175.992 515.657 175.331 510.366 174.008C505.076 172.603 500.86 170.867 497.718 168.8L504.166 154.912C507.142 156.813 510.738 158.384 514.954 159.624C519.17 160.781 523.304 161.36 527.354 161.36C535.538 161.36 539.63 159.335 539.63 155.284C539.63 153.383 538.514 152.019 536.282 151.192C534.05 150.365 530.62 149.663 525.99 149.084C520.534 148.257 516.029 147.307 512.474 146.232C508.92 145.157 505.82 143.256 503.174 140.528C500.612 137.8 499.33 133.915 499.33 128.872C499.33 124.656 500.529 120.936 502.926 117.712C505.406 114.405 508.961 111.843 513.59 110.024C518.302 108.205 523.841 107.296 530.206 107.296C534.918 107.296 539.589 107.833 544.218 108.908C548.93 109.9 552.816 111.305 555.874 113.124L549.426 126.888C543.557 123.581 537.15 121.928 530.206 121.928C526.073 121.928 522.973 122.507 520.906 123.664C518.84 124.821 517.806 126.309 517.806 128.128C517.806 130.195 518.922 131.641 521.154 132.468C523.386 133.295 526.941 134.08 531.818 134.824C537.274 135.733 541.738 136.725 545.21 137.8C548.682 138.792 551.7 140.652 554.262 143.38C556.825 146.108 558.106 149.911 558.106 154.788C558.106 158.921 556.866 162.6 554.386 165.824C551.906 169.048 548.269 171.569 543.474 173.388C538.762 175.124 533.141 175.992 526.61 175.992ZM632.066 107.296C642.4 107.296 650.336 109.776 655.874 114.736C661.413 119.613 664.182 127.012 664.182 136.932V175H646.078V166.692C642.441 172.892 635.662 175.992 625.742 175.992C620.617 175.992 616.153 175.124 612.35 173.388C608.63 171.652 605.778 169.255 603.794 166.196C601.81 163.137 600.818 159.665 600.818 155.78C600.818 149.58 603.133 144.703 607.762 141.148C612.474 137.593 619.708 135.816 629.462 135.816H644.838C644.838 131.6 643.557 128.376 640.994 126.144C638.432 123.829 634.588 122.672 629.462 122.672C625.908 122.672 622.394 123.251 618.922 124.408C615.533 125.483 612.64 126.971 610.242 128.872L603.298 115.356C606.936 112.793 611.276 110.809 616.318 109.404C621.444 107.999 626.693 107.296 632.066 107.296ZM630.578 162.972C633.885 162.972 636.82 162.228 639.382 160.74C641.945 159.169 643.764 156.896 644.838 153.92V147.1H631.57C623.634 147.1 619.666 149.704 619.666 154.912C619.666 157.392 620.617 159.376 622.518 160.864C624.502 162.269 627.189 162.972 630.578 162.972ZM722.238 107.296C730.504 107.296 737.159 109.776 742.202 114.736C747.327 119.696 749.89 127.053 749.89 136.808V175H730.546V139.784C730.546 134.493 729.388 130.567 727.074 128.004C724.759 125.359 721.411 124.036 717.03 124.036C712.152 124.036 708.267 125.565 705.374 128.624C702.48 131.6 701.034 136.064 701.034 142.016V175H681.69V108.288H700.166V116.1C702.728 113.289 705.911 111.14 709.714 109.652C713.516 108.081 717.691 107.296 722.238 107.296ZM836.103 82.992V175H817.627V167.312C812.832 173.099 805.888 175.992 796.795 175.992C790.512 175.992 784.808 174.587 779.683 171.776C774.64 168.965 770.672 164.956 767.779 159.748C764.885 154.54 763.439 148.505 763.439 141.644C763.439 134.783 764.885 128.748 767.779 123.54C770.672 118.332 774.64 114.323 779.683 111.512C784.808 108.701 790.512 107.296 796.795 107.296C805.309 107.296 811.964 109.983 816.759 115.356V82.992H836.103ZM800.143 160.12C805.02 160.12 809.071 158.467 812.295 155.16C815.519 151.771 817.131 147.265 817.131 141.644C817.131 136.023 815.519 131.559 812.295 128.252C809.071 124.863 805.02 123.168 800.143 123.168C795.183 123.168 791.091 124.863 787.867 128.252C784.643 131.559 783.031 136.023 783.031 141.644C783.031 147.265 784.643 151.771 787.867 155.16C791.091 158.467 795.183 160.12 800.143 160.12ZM954.223 129.864C959.183 131.435 963.069 134.08 965.879 137.8C968.69 141.437 970.095 145.943 970.095 151.316C970.095 158.921 967.119 164.791 961.167 168.924C955.298 172.975 946.701 175 935.375 175H890.487V88.2H932.895C943.477 88.2 951.578 90.2253 957.199 94.276C962.903 98.3267 965.755 103.824 965.755 110.768C965.755 114.984 964.722 118.745 962.655 122.052C960.671 125.359 957.861 127.963 954.223 129.864ZM910.451 103.328V123.788H930.415C935.375 123.788 939.137 122.92 941.699 121.184C944.262 119.448 945.543 116.885 945.543 113.496C945.543 110.107 944.262 107.585 941.699 105.932C939.137 104.196 935.375 103.328 930.415 103.328H910.451ZM933.887 159.872C939.178 159.872 943.146 159.004 945.791 157.268C948.519 155.532 949.883 152.845 949.883 149.208C949.883 142.016 944.551 138.42 933.887 138.42H910.451V159.872H933.887ZM1051.15 108.288V175H1032.8V167.064C1030.23 169.957 1027.17 172.189 1023.62 173.76C1020.07 175.248 1016.22 175.992 1012.09 175.992C1003.33 175.992 996.381 173.471 991.256 168.428C986.13 163.385 983.568 155.904 983.568 145.984V108.288H1002.91V143.132C1002.91 153.879 1007.42 159.252 1016.43 159.252C1021.06 159.252 1024.78 157.764 1027.59 154.788C1030.4 151.729 1031.8 147.224 1031.8 141.272V108.288H1051.15ZM1069.07 82.992H1088.41V175H1069.07V82.992ZM1106.37 82.992H1125.71V175H1106.37V82.992ZM1166.11 175.992C1160.57 175.992 1155.15 175.331 1149.86 174.008C1144.57 172.603 1140.36 170.867 1137.21 168.8L1143.66 154.912C1146.64 156.813 1150.23 158.384 1154.45 159.624C1158.67 160.781 1162.8 161.36 1166.85 161.36C1175.03 161.36 1179.13 159.335 1179.13 155.284C1179.13 153.383 1178.01 152.019 1175.78 151.192C1173.55 150.365 1170.12 149.663 1165.49 149.084C1160.03 148.257 1155.53 147.307 1151.97 146.232C1148.42 145.157 1145.32 143.256 1142.67 140.528C1140.11 137.8 1138.83 133.915 1138.83 128.872C1138.83 124.656 1140.03 120.936 1142.42 117.712C1144.9 114.405 1148.46 111.843 1153.09 110.024C1157.8 108.205 1163.34 107.296 1169.7 107.296C1174.41 107.296 1179.09 107.833 1183.71 108.908C1188.43 109.9 1192.31 111.305 1195.37 113.124L1188.92 126.888C1183.05 123.581 1176.65 121.928 1169.7 121.928C1165.57 121.928 1162.47 122.507 1160.4 123.664C1158.34 124.821 1157.3 126.309 1157.3 128.128C1157.3 130.195 1158.42 131.641 1160.65 132.468C1162.88 133.295 1166.44 134.08 1171.31 134.824C1176.77 135.733 1181.23 136.725 1184.71 137.8C1188.18 138.792 1191.2 140.652 1193.76 143.38C1196.32 146.108 1197.6 149.911 1197.6 154.788C1197.6 158.921 1196.36 162.6 1193.88 165.824C1191.4 169.048 1187.77 171.569 1182.97 173.388C1178.26 175.124 1172.64 175.992 1166.11 175.992Z" fill="black"/>
<path d="M444.662 301.432C442.25 301.432 439.892 301.144 437.588 300.568C435.284 299.956 433.448 299.2 432.08 298.3L434.888 292.252C436.184 293.08 437.75 293.764 439.586 294.304C441.422 294.808 443.222 295.06 444.986 295.06C448.55 295.06 450.332 294.178 450.332 292.414C450.332 291.586 449.846 290.992 448.874 290.632C447.902 290.272 446.408 289.966 444.392 289.714C442.016 289.354 440.054 288.94 438.506 288.472C436.958 288.004 435.608 287.176 434.456 285.988C433.34 284.8 432.782 283.108 432.782 280.912C432.782 279.076 433.304 277.456 434.348 276.052C435.428 274.612 436.976 273.496 438.992 272.704C441.044 271.912 443.456 271.516 446.228 271.516C448.28 271.516 450.314 271.75 452.33 272.218C454.382 272.65 456.074 273.262 457.406 274.054L454.598 280.048C452.042 278.608 449.252 277.888 446.228 277.888C444.428 277.888 443.078 278.14 442.178 278.644C441.278 279.148 440.828 279.796 440.828 280.588C440.828 281.488 441.314 282.118 442.286 282.478C443.258 282.838 444.806 283.18 446.93 283.504C449.306 283.9 451.25 284.332 452.762 284.8C454.274 285.232 455.588 286.042 456.704 287.23C457.82 288.418 458.378 290.074 458.378 292.198C458.378 293.998 457.838 295.6 456.758 297.004C455.678 298.408 454.094 299.506 452.006 300.298C449.954 301.054 447.506 301.432 444.662 301.432ZM492.844 271.948V301H484.852V297.544C483.736 298.804 482.404 299.776 480.856 300.46C479.308 301.108 477.634 301.432 475.834 301.432C472.018 301.432 468.994 300.334 466.762 298.138C464.53 295.942 463.414 292.684 463.414 288.364V271.948H471.838V287.122C471.838 291.802 473.8 294.142 477.724 294.142C479.74 294.142 481.36 293.494 482.584 292.198C483.808 290.866 484.42 288.904 484.42 286.312V271.948H492.844ZM514.688 301.432C511.592 301.432 508.802 300.802 506.318 299.542C503.87 298.246 501.944 296.464 500.54 294.196C499.172 291.928 498.488 289.354 498.488 286.474C498.488 283.594 499.172 281.02 500.54 278.752C501.944 276.484 503.87 274.72 506.318 273.46C508.802 272.164 511.592 271.516 514.688 271.516C517.748 271.516 520.412 272.164 522.68 273.46C524.984 274.72 526.658 276.538 527.702 278.914L521.168 282.424C519.656 279.76 517.478 278.428 514.634 278.428C512.438 278.428 510.62 279.148 509.18 280.588C507.74 282.028 507.02 283.99 507.02 286.474C507.02 288.958 507.74 290.92 509.18 292.36C510.62 293.8 512.438 294.52 514.634 294.52C517.514 294.52 519.692 293.188 521.168 290.524L527.702 294.088C526.658 296.392 524.984 298.192 522.68 299.488C520.412 300.784 517.748 301.432 514.688 301.432ZM549.999 271.516C553.599 271.516 556.497 272.596 558.693 274.756C560.925 276.916 562.041 280.12 562.041 284.368V301H553.617V285.664C553.617 283.36 553.113 281.65 552.105 280.534C551.097 279.382 549.639 278.806 547.731 278.806C545.607 278.806 543.915 279.472 542.655 280.804C541.395 282.1 540.765 284.044 540.765 286.636V301H532.341V260.932H540.765V274.972C541.881 273.856 543.231 273.01 544.815 272.434C546.399 271.822 548.127 271.516 549.999 271.516ZM596.688 271.516C601.188 271.516 604.644 272.596 607.056 274.756C609.468 276.88 610.674 280.102 610.674 284.422V301H602.79V297.382C601.206 300.082 598.254 301.432 593.934 301.432C591.702 301.432 589.758 301.054 588.102 300.298C586.482 299.542 585.24 298.498 584.376 297.166C583.512 295.834 583.08 294.322 583.08 292.63C583.08 289.93 584.088 287.806 586.104 286.258C588.156 284.71 591.306 283.936 595.554 283.936H602.25C602.25 282.1 601.692 280.696 600.576 279.724C599.46 278.716 597.786 278.212 595.554 278.212C594.006 278.212 592.476 278.464 590.964 278.968C589.488 279.436 588.228 280.084 587.184 280.912L584.16 275.026C585.744 273.91 587.634 273.046 589.83 272.434C592.062 271.822 594.348 271.516 596.688 271.516ZM596.04 295.762C597.48 295.762 598.758 295.438 599.874 294.79C600.99 294.106 601.782 293.116 602.25 291.82V288.85H596.472C593.016 288.85 591.288 289.984 591.288 292.252C591.288 293.332 591.702 294.196 592.53 294.844C593.394 295.456 594.564 295.762 596.04 295.762ZM643.365 301.432C640.953 301.432 638.595 301.144 636.291 300.568C633.987 299.956 632.151 299.2 630.783 298.3L633.591 292.252C634.887 293.08 636.453 293.764 638.289 294.304C640.125 294.808 641.925 295.06 643.689 295.06C647.253 295.06 649.035 294.178 649.035 292.414C649.035 291.586 648.549 290.992 647.577 290.632C646.605 290.272 645.111 289.966 643.095 289.714C640.719 289.354 638.757 288.94 637.209 288.472C635.661 288.004 634.311 287.176 633.159 285.988C632.043 284.8 631.485 283.108 631.485 280.912C631.485 279.076 632.007 277.456 633.051 276.052C634.131 274.612 635.679 273.496 637.695 272.704C639.747 271.912 642.159 271.516 644.931 271.516C646.983 271.516 649.017 271.75 651.033 272.218C653.085 272.65 654.777 273.262 656.109 274.054L653.301 280.048C650.745 278.608 647.955 277.888 644.931 277.888C643.131 277.888 641.781 278.14 640.881 278.644C639.981 279.148 639.531 279.796 639.531 280.588C639.531 281.488 640.017 282.118 640.989 282.478C641.961 282.838 643.509 283.18 645.633 283.504C648.009 283.9 649.953 284.332 651.465 284.8C652.977 285.232 654.291 286.042 655.407 287.23C656.523 288.418 657.081 290.074 657.081 292.198C657.081 293.998 656.541 295.6 655.461 297.004C654.381 298.408 652.797 299.506 650.709 300.298C648.657 301.054 646.209 301.432 643.365 301.432ZM662.279 271.948H670.703V301H662.279V271.948ZM666.491 267.898C664.943 267.898 663.683 267.448 662.711 266.548C661.739 265.648 661.253 264.532 661.253 263.2C661.253 261.868 661.739 260.752 662.711 259.852C663.683 258.952 664.943 258.502 666.491 258.502C668.039 258.502 669.299 258.934 670.271 259.798C671.243 260.662 671.729 261.742 671.729 263.038C671.729 264.442 671.243 265.612 670.271 266.548C669.299 267.448 668.039 267.898 666.491 267.898ZM715.727 271.516C719.363 271.516 722.243 272.596 724.367 274.756C726.527 276.88 727.607 280.084 727.607 284.368V301H719.183V285.664C719.183 283.36 718.697 281.65 717.725 280.534C716.789 279.382 715.439 278.806 713.675 278.806C711.695 278.806 710.129 279.454 708.977 280.75C707.825 282.01 707.249 283.9 707.249 286.42V301H698.825V285.664C698.825 281.092 696.989 278.806 693.317 278.806C691.373 278.806 689.825 279.454 688.673 280.75C687.521 282.01 686.945 283.9 686.945 286.42V301H678.521V271.948H686.567V275.296C687.647 274.072 688.961 273.136 690.509 272.488C692.093 271.84 693.821 271.516 695.693 271.516C697.745 271.516 699.599 271.93 701.255 272.758C702.911 273.55 704.243 274.72 705.251 276.268C706.439 274.756 707.933 273.586 709.733 272.758C711.569 271.93 713.567 271.516 715.727 271.516ZM752.33 271.516C755.03 271.516 757.478 272.146 759.674 273.406C761.906 274.63 763.652 276.376 764.912 278.644C766.172 280.876 766.802 283.486 766.802 286.474C766.802 289.462 766.172 292.09 764.912 294.358C763.652 296.59 761.906 298.336 759.674 299.596C757.478 300.82 755.03 301.432 752.33 301.432C748.622 301.432 745.706 300.262 743.582 297.922V311.476H735.158V271.948H743.204V275.296C745.292 272.776 748.334 271.516 752.33 271.516ZM750.872 294.52C753.032 294.52 754.796 293.8 756.164 292.36C757.568 290.884 758.27 288.922 758.27 286.474C758.27 284.026 757.568 282.082 756.164 280.642C754.796 279.166 753.032 278.428 750.872 278.428C748.712 278.428 746.93 279.166 745.526 280.642C744.158 282.082 743.474 284.026 743.474 286.474C743.474 288.922 744.158 290.884 745.526 292.36C746.93 293.8 748.712 294.52 750.872 294.52ZM772.441 260.932H780.865V301H772.441V260.932ZM817.141 286.582C817.141 286.69 817.087 287.446 816.979 288.85H795.001C795.397 290.65 796.333 292.072 797.809 293.116C799.285 294.16 801.121 294.682 803.317 294.682C804.829 294.682 806.161 294.466 807.313 294.034C808.501 293.566 809.599 292.846 810.607 291.874L815.089 296.734C812.353 299.866 808.357 301.432 803.101 301.432C799.825 301.432 796.927 300.802 794.407 299.542C791.887 298.246 789.943 296.464 788.575 294.196C787.207 291.928 786.523 289.354 786.523 286.474C786.523 283.63 787.189 281.074 788.521 278.806C789.889 276.502 791.743 274.72 794.083 273.46C796.459 272.164 799.105 271.516 802.021 271.516C804.865 271.516 807.439 272.128 809.743 273.352C812.047 274.576 813.847 276.34 815.143 278.644C816.475 280.912 817.141 283.558 817.141 286.582ZM802.075 277.888C800.167 277.888 798.565 278.428 797.269 279.508C795.973 280.588 795.181 282.064 794.893 283.936H809.203C808.915 282.1 808.123 280.642 806.827 279.562C805.531 278.446 803.947 277.888 802.075 277.888ZM868.012 271.948V296.14C868.012 301.468 866.626 305.428 863.854 308.02C861.082 310.612 857.032 311.908 851.704 311.908C848.896 311.908 846.232 311.566 843.712 310.882C841.192 310.198 839.104 309.208 837.448 307.912L840.796 301.864C842.02 302.872 843.568 303.664 845.44 304.24C847.312 304.852 849.184 305.158 851.056 305.158C853.972 305.158 856.114 304.492 857.482 303.16C858.886 301.864 859.588 299.884 859.588 297.22V295.978C857.392 298.39 854.332 299.596 850.408 299.596C847.744 299.596 845.296 299.02 843.064 297.868C840.868 296.68 839.122 295.024 837.826 292.9C836.53 290.776 835.882 288.328 835.882 285.556C835.882 282.784 836.53 280.336 837.826 278.212C839.122 276.088 840.868 274.45 843.064 273.298C845.296 272.11 847.744 271.516 850.408 271.516C854.62 271.516 857.824 272.902 860.02 275.674V271.948H868.012ZM852.082 292.684C854.314 292.684 856.132 292.036 857.536 290.74C858.976 289.408 859.696 287.68 859.696 285.556C859.696 283.432 858.976 281.722 857.536 280.426C856.132 279.094 854.314 278.428 852.082 278.428C849.85 278.428 848.014 279.094 846.574 280.426C845.134 281.722 844.414 283.432 844.414 285.556C844.414 287.68 845.134 289.408 846.574 290.74C848.014 292.036 849.85 292.684 852.082 292.684ZM887.571 271.516C892.071 271.516 895.527 272.596 897.939 274.756C900.351 276.88 901.557 280.102 901.557 284.422V301H893.673V297.382C892.089 300.082 889.137 301.432 884.817 301.432C882.585 301.432 880.641 301.054 878.985 300.298C877.365 299.542 876.123 298.498 875.259 297.166C874.395 295.834 873.963 294.322 873.963 292.63C873.963 289.93 874.971 287.806 876.987 286.258C879.039 284.71 882.189 283.936 886.437 283.936H893.133C893.133 282.1 892.575 280.696 891.459 279.724C890.343 278.716 888.669 278.212 886.437 278.212C884.889 278.212 883.359 278.464 881.847 278.968C880.371 279.436 879.111 280.084 878.067 280.912L875.043 275.026C876.627 273.91 878.517 273.046 880.713 272.434C882.945 271.822 885.231 271.516 887.571 271.516ZM886.923 295.762C888.363 295.762 889.641 295.438 890.757 294.79C891.873 294.106 892.665 293.116 893.133 291.82V288.85H887.355C883.899 288.85 882.171 289.984 882.171 292.252C882.171 293.332 882.585 294.196 883.413 294.844C884.277 295.456 885.447 295.762 886.923 295.762ZM946.387 271.516C950.023 271.516 952.903 272.596 955.027 274.756C957.187 276.88 958.267 280.084 958.267 284.368V301H949.843V285.664C949.843 283.36 949.357 281.65 948.385 280.534C947.449 279.382 946.099 278.806 944.335 278.806C942.355 278.806 940.789 279.454 939.637 280.75C938.485 282.01 937.909 283.9 937.909 286.42V301H929.485V285.664C929.485 281.092 927.649 278.806 923.977 278.806C922.033 278.806 920.485 279.454 919.333 280.75C918.181 282.01 917.605 283.9 917.605 286.42V301H909.181V271.948H917.227V275.296C918.307 274.072 919.621 273.136 921.169 272.488C922.753 271.84 924.481 271.516 926.353 271.516C928.405 271.516 930.259 271.93 931.915 272.758C933.571 273.55 934.903 274.72 935.911 276.268C937.099 274.756 938.593 273.586 940.393 272.758C942.229 271.93 944.227 271.516 946.387 271.516ZM994.592 286.582C994.592 286.69 994.538 287.446 994.43 288.85H972.452C972.848 290.65 973.784 292.072 975.26 293.116C976.736 294.16 978.572 294.682 980.768 294.682C982.28 294.682 983.612 294.466 984.764 294.034C985.952 293.566 987.05 292.846 988.058 291.874L992.54 296.734C989.804 299.866 985.808 301.432 980.552 301.432C977.276 301.432 974.378 300.802 971.858 299.542C969.338 298.246 967.394 296.464 966.026 294.196C964.658 291.928 963.974 289.354 963.974 286.474C963.974 283.63 964.64 281.074 965.972 278.806C967.34 276.502 969.194 274.72 971.534 273.46C973.91 272.164 976.556 271.516 979.472 271.516C982.316 271.516 984.89 272.128 987.194 273.352C989.498 274.576 991.298 276.34 992.594 278.644C993.926 280.912 994.592 283.558 994.592 286.582ZM979.526 277.888C977.618 277.888 976.016 278.428 974.72 279.508C973.424 280.588 972.632 282.064 972.344 283.936H986.654C986.366 282.1 985.574 280.642 984.278 279.562C982.982 278.446 981.398 277.888 979.526 277.888Z" fill="black"/>
</svg>
